<svg width="326" height="251"
xmlns="http://www.w3.org/2000/svg"
xmlns:xlink="http://www.w3.org/1999/xlink"
>
<!-- COMMAND: -->
<!-- DATE   :2020_03_18_19_13_24 -->
<line x1="20.000000" y1="65.044944" x2="20.000000" y2="80.033139" style="stroke: #7F7F7F;"/>
<line x1="20.000000" y1="95.021335" x2="20.000000" y2="80.033139" style="stroke: #6464FF;"/>
<line x1="21.000043" y1="93.289309" x2="33.980384" y2="100.783942" style="stroke: #6464FF;"/>
<line x1="46.960725" y1="108.278576" x2="33.980384" y2="100.783942" style="stroke: #7F7F7F;"/>
<line x1="18.999957" y1="96.753361" x2="31.980298" y2="104.247994" style="stroke: #6464FF;"/>
<line x1="44.960639" y1="111.742628" x2="31.980298" y2="104.247994" style="stroke: #7F7F7F;"/>
<line x1="45.960682" y1="110.010602" x2="58.941023" y2="102.515968" style="stroke: #7F7F7F;"/>
<line x1="71.921364" y1="95.021335" x2="58.941023" y2="102.515968" style="stroke: #7F7F7F;"/>
<line x1="71.921364" y1="95.021335" x2="71.921364" y2="80.033139" style="stroke: #7F7F7F;"/>
<line x1="71.921364" y1="65.044944" x2="71.921364" y2="80.033139" style="stroke: #7F7F7F;"/>
<line x1="71.921364" y1="65.044944" x2="58.941023" y2="57.551382" style="stroke: #7F7F7F;"/>
<line x1="45.960682" y1="50.057820" x2="58.941023" y2="57.551382" style="stroke: #6464FF;"/>
<line x1="19.000064" y1="63.312856" x2="31.980405" y2="55.819294" style="stroke: #7F7F7F;"/>
<line x1="44.960746" y1="48.325732" x2="31.980405" y2="55.819294" style="stroke: #6464FF;"/>
<line x1="20.999936" y1="66.777031" x2="33.980277" y2="59.283469" style="stroke: #7F7F7F;"/>
<line x1="46.960618" y1="51.789907" x2="33.980277" y2="59.283469" style="stroke: #6464FF;"/>
<line x1="72.921407" y1="93.289309" x2="85.901748" y2="100.783942" style="stroke: #7F7F7F;"/>
<line x1="98.882088" y1="108.278576" x2="85.901748" y2="100.783942" style="stroke: #7F7F7F;"/>
<line x1="70.921321" y1="96.753361" x2="83.901661" y2="104.247994" style="stroke: #7F7F7F;"/>
<line x1="96.882002" y1="111.742628" x2="83.901661" y2="104.247994" style="stroke: #7F7F7F;"/>
<line x1="97.882045" y1="110.010602" x2="110.862386" y2="102.515968" style="stroke: #7F7F7F;"/>
<line x1="123.842727" y1="95.021335" x2="110.862386" y2="102.515968" style="stroke: #7F7F7F;"/>
<line x1="121.842727" y1="95.021335" x2="121.842727" y2="80.033139" style="stroke: #7F7F7F;"/>
<line x1="121.842727" y1="65.044944" x2="121.842727" y2="80.033139" style="stroke: #7F7F7F;"/>
<line x1="125.842727" y1="95.021335" x2="125.842727" y2="80.033139" style="stroke: #7F7F7F;"/>
<line x1="125.842727" y1="65.044944" x2="125.842727" y2="80.033139" style="stroke: #7F7F7F;"/>
<line x1="123.842727" y1="65.044944" x2="110.862386" y2="57.551382" style="stroke: #7F7F7F;"/>
<line x1="97.882045" y1="50.057820" x2="110.862386" y2="57.551382" style="stroke: #7F7F7F;"/>
<line x1="70.921428" y1="63.312856" x2="83.901769" y2="55.819294" style="stroke: #7F7F7F;"/>
<line x1="96.882110" y1="48.325732" x2="83.901769" y2="55.819294" style="stroke: #7F7F7F;"/>
<line x1="72.921299" y1="66.777031" x2="85.901640" y2="59.283469" style="stroke: #7F7F7F;"/>
<line x1="98.881981" y1="51.789907" x2="85.901640" y2="59.283469" style="stroke: #7F7F7F;"/>
<line x1="45.960682" y1="110.010602" x2="45.960682" y2="124.999869" style="stroke: #7F7F7F;"/>
<line x1="45.960682" y1="139.989136" x2="45.960682" y2="124.999869" style="stroke: #6464FF;"/>
<line x1="123.842727" y1="65.044944" x2="136.851997" y2="57.534239" style="stroke: #7F7F7F;"/>
<line x1="149.861266" y1="50.023534" x2="136.851997" y2="57.534239" style="stroke: #FF0000;"/>
<line x1="149.861266" y1="50.023534" x2="149.861266" y2="35.011767" style="stroke: #FF0000;"/>
<line x1="149.861266" y1="20.000000" x2="149.861266" y2="35.011767" style="stroke: #7F7F7F;"/>
<line x1="123.842727" y1="95.021335" x2="136.851997" y2="102.532040" style="stroke: #7F7F7F;"/>
<line x1="149.861266" y1="110.042744" x2="136.851997" y2="102.532040" style="stroke: #FF0000;"/>
<line x1="149.861266" y1="110.042744" x2="162.861964" y2="102.536325" style="stroke: #FF0000;"/>
<line x1="175.862662" y1="95.029906" x2="162.861964" y2="102.536325" style="stroke: #7F7F7F;"/>
<line x1="175.862662" y1="95.029906" x2="188.850503" y2="102.520254" style="stroke: #7F7F7F;"/>
<line x1="201.838344" y1="110.010602" x2="188.850503" y2="102.520254" style="stroke: #7F7F7F;"/>
<line x1="201.838344" y1="110.010602" x2="214.819756" y2="102.515968" style="stroke: #7F7F7F;"/>
<line x1="227.801169" y1="95.021335" x2="214.819756" y2="102.515968" style="stroke: #7F7F7F;"/>
<line x1="227.801169" y1="95.021335" x2="240.780438" y2="102.515968" style="stroke: #7F7F7F;"/>
<line x1="253.759707" y1="110.010602" x2="240.780438" y2="102.515968" style="stroke: #6464FF;"/>
<line x1="45.960682" y1="139.989136" x2="58.948523" y2="147.486983" style="stroke: #6464FF;"/>
<line x1="71.936364" y1="154.984831" x2="58.948523" y2="147.486983" style="stroke: #7F7F7F;"/>
<line x1="73.936364" y1="154.984831" x2="73.936364" y2="169.968741" style="stroke: #7F7F7F;"/>
<line x1="73.936364" y1="184.952651" x2="73.936364" y2="169.968741" style="stroke: #7F7F7F;"/>
<line x1="69.936364" y1="154.984831" x2="69.936364" y2="169.968741" style="stroke: #7F7F7F;"/>
<line x1="69.936364" y1="184.952651" x2="69.936364" y2="169.968741" style="stroke: #7F7F7F;"/>
<line x1="71.936364" y1="184.952651" x2="84.916704" y2="192.447284" style="stroke: #7F7F7F;"/>
<line x1="97.897045" y1="199.941918" x2="84.916704" y2="192.447284" style="stroke: #7F7F7F;"/>
<line x1="96.896940" y1="198.209927" x2="109.876210" y2="190.715294" style="stroke: #7F7F7F;"/>
<line x1="122.855479" y1="183.220661" x2="109.876210" y2="190.715294" style="stroke: #7F7F7F;"/>
<line x1="98.897150" y1="201.673908" x2="111.876420" y2="194.179274" style="stroke: #7F7F7F;"/>
<line x1="124.855689" y1="186.684641" x2="111.876420" y2="194.179274" style="stroke: #7F7F7F;"/>
<line x1="123.855584" y1="184.952651" x2="123.855584" y2="169.968741" style="stroke: #7F7F7F;"/>
<line x1="123.855584" y1="154.984831" x2="123.855584" y2="169.968741" style="stroke: #7F7F7F;"/>
<line x1="122.855587" y1="156.716883" x2="109.876317" y2="149.223321" style="stroke: #7F7F7F;"/>
<line x1="96.897048" y1="141.729759" x2="109.876317" y2="149.223321" style="stroke: #7F7F7F;"/>
<line x1="124.855582" y1="153.252779" x2="111.876313" y2="145.759217" style="stroke: #7F7F7F;"/>
<line x1="98.897043" y1="138.265655" x2="111.876313" y2="145.759217" style="stroke: #7F7F7F;"/>
<line x1="71.936364" y1="154.984831" x2="84.916704" y2="147.491269" style="stroke: #7F7F7F;"/>
<line x1="97.897045" y1="139.997707" x2="84.916704" y2="147.491269" style="stroke: #7F7F7F;"/>
<line x1="123.855584" y1="184.952651" x2="136.860568" y2="192.460141" style="stroke: #7F7F7F;"/>
<line x1="149.865552" y1="199.967632" x2="136.860568" y2="192.460141" style="stroke: #DAA520;"/>
<line x1="97.897045" y1="199.941918" x2="97.897045" y2="214.992256" style="stroke: #7F7F7F;"/>
<line x1="97.897045" y1="230.042594" x2="97.897045" y2="214.992256" style="stroke: #00FF00;"/>
<line x1="253.759707" y1="110.010602" x2="253.758636" y2="125.077011" style="stroke: #6464FF;"/>
<line x1="253.757565" y1="140.143421" x2="253.758636" y2="125.077011" style="stroke: #7F7F7F;"/>
<line x1="253.757565" y1="140.143421" x2="266.744334" y2="147.642340" style="stroke: #7F7F7F;"/>
<line x1="279.731104" y1="155.141259" x2="266.744334" y2="147.642340" style="stroke: #7F7F7F;"/>
<line x1="279.731104" y1="155.141259" x2="292.718944" y2="147.643412" style="stroke: #7F7F7F;"/>
<line x1="305.706785" y1="140.145564" x2="292.718944" y2="147.643412" style="stroke: #FF0000;"/>
<line x1="305.706785" y1="140.145564" x2="305.707857" y2="125.079154" style="stroke: #FF0000;"/>
<line x1="305.708928" y1="110.012744" x2="305.707857" y2="125.079154" style="stroke: #7F7F7F;"/>
<line x1="305.708928" y1="110.012744" x2="292.722159" y2="102.513825" style="stroke: #7F7F7F;"/>
<line x1="279.735389" y1="95.014906" x2="292.722159" y2="102.513825" style="stroke: #7F7F7F;"/>
<line x1="253.759707" y1="110.010602" x2="266.747548" y2="102.512754" style="stroke: #6464FF;"/>
<line x1="279.735389" y1="95.014906" x2="266.747548" y2="102.512754" style="stroke: #7F7F7F;"/>
<circle cx="20.000000" cy="65.044944" r="3.000000" style="stroke: #7F7F7F; fill: #7F7F7F;"/>
<circle cx="20.000000" cy="95.021335" r="3.000000" style="stroke: #6464FF; fill: #6464FF;"/>
<circle cx="45.960682" cy="110.010602" r="3.000000" style="stroke: #7F7F7F; fill: #7F7F7F;"/>
<circle cx="71.921364" cy="95.021335" r="3.000000" style="stroke: #7F7F7F; fill: #7F7F7F;"/>
<circle cx="71.921364" cy="65.044944" r="3.000000" style="stroke: #7F7F7F; fill: #7F7F7F;"/>
<circle cx="45.960682" cy="50.057820" r="3.000000" style="stroke: #6464FF; fill: #6464FF;"/>
<circle cx="97.882045" cy="110.010602" r="3.000000" style="stroke: #7F7F7F; fill: #7F7F7F;"/>
<circle cx="123.842727" cy="95.021335" r="3.000000" style="stroke: #7F7F7F; fill: #7F7F7F;"/>
<circle cx="123.842727" cy="65.044944" r="3.000000" style="stroke: #7F7F7F; fill: #7F7F7F;"/>
<circle cx="97.882045" cy="50.057820" r="3.000000" style="stroke: #7F7F7F; fill: #7F7F7F;"/>
<circle cx="45.960682" cy="139.989136" r="3.000000" style="stroke: #6464FF; fill: #6464FF;"/>
<circle cx="149.861266" cy="50.023534" r="3.000000" style="stroke: #FF0000; fill: #FF0000;"/>
<circle cx="149.861266" cy="20.000000" r="3.000000" style="stroke: #7F7F7F; fill: #7F7F7F;"/>
<circle cx="149.861266" cy="110.042744" r="3.000000" style="stroke: #FF0000; fill: #FF0000;"/>
<circle cx="175.862662" cy="95.029906" r="3.000000" style="stroke: #7F7F7F; fill: #7F7F7F;"/>
<circle cx="201.838344" cy="110.010602" r="3.000000" style="stroke: #7F7F7F; fill: #7F7F7F;"/>
<circle cx="227.801169" cy="95.021335" r="3.000000" style="stroke: #7F7F7F; fill: #7F7F7F;"/>
<circle cx="253.759707" cy="110.010602" r="3.000000" style="stroke: #6464FF; fill: #6464FF;"/>
<circle cx="71.936364" cy="154.984831" r="3.000000" style="stroke: #7F7F7F; fill: #7F7F7F;"/>
<circle cx="71.936364" cy="184.952651" r="3.000000" style="stroke: #7F7F7F; fill: #7F7F7F;"/>
<circle cx="97.897045" cy="199.941918" r="3.000000" style="stroke: #7F7F7F; fill: #7F7F7F;"/>
<circle cx="123.855584" cy="184.952651" r="3.000000" style="stroke: #7F7F7F; fill: #7F7F7F;"/>
<circle cx="123.855584" cy="154.984831" r="3.000000" style="stroke: #7F7F7F; fill: #7F7F7F;"/>
<circle cx="97.897045" cy="139.997707" r="3.000000" style="stroke: #7F7F7F; fill: #7F7F7F;"/>
<circle cx="149.865552" cy="199.967632" r="3.000000" style="stroke: #DAA520; fill: #DAA520;"/>
<circle cx="97.897045" cy="230.042594" r="3.000000" style="stroke: #00FF00; fill: #00FF00;"/>
<circle cx="253.757565" cy="140.143421" r="3.000000" style="stroke: #7F7F7F; fill: #7F7F7F;"/>
<circle cx="279.731104" cy="155.141259" r="3.000000" style="stroke: #7F7F7F; fill: #7F7F7F;"/>
<circle cx="305.706785" cy="140.145564" r="3.000000" style="stroke: #FF0000; fill: #FF0000;"/>
<circle cx="305.708928" cy="110.012744" r="3.000000" style="stroke: #7F7F7F; fill: #7F7F7F;"/>
<circle cx="279.735389" cy="95.014906" r="3.000000" style="stroke: #7F7F7F; fill: #7F7F7F;"/>
</svg>

